# xmcd
#
# Track frame offsets:
#	187
#	12525
#	29712
#	48860
#	64112
#	74632
#	86770
#	100227
#	113637
#	127967
#
# Disc length: 1887 seconds
#
# Revision: 1
# Processed by: cddbd v1.5.2PL0 Copyright (c) Steve Scherf et al.
# Submitted via: EZCDAudioConverter 7.1.4.1
#
DISCID=8a075d0a
DTITLE=Becky Hobbs - All Keyed Up
DYEAR=1988
DGENRE=Country
TTITLE0=They Always Look Better When They're Leavin
TTITLE1=Mama Was A Working Man
TTITLE2=She Broke Her Promise
TTITLE3=Cowgirl's Heart
TTITLE4=I'm-A-Gonna Get To You
TTITLE5=All Keyed Up
TTITLE6=Jones On The Jukebox
TTITLE7=It's Because  Do
TTITLE8=Old Flame Burns Blue
TTITLE9=Are There Any More Like You (Where You Came From)
EXTD=
EXTT0=
EXTT1=
EXTT2=
EXTT3=
EXTT4=
EXTT5=
EXTT6=
EXTT7=
EXTT8=
EXTT9=
PLAYORDER=
